<svg width="24" height="24" viewBox="0 0 24 24" fill="none" xmlns="http://www.w3.org/2000/svg">
<path d="M7.09968 0.333374H16.8997C20.633 0.333374 23.6663 3.36671 23.6663 7.10004V16.9C23.6663 18.6947 22.9534 20.4158 21.6844 21.6848C20.4154 22.9538 18.6943 23.6667 16.8997 23.6667H7.09968C3.36634 23.6667 0.333008 20.6334 0.333008 16.9V7.10004C0.333008 5.30541 1.04592 3.58428 2.31492 2.31529C3.58391 1.04629 5.30504 0.333374 7.09968 0.333374ZM6.86634 2.66671C5.75243 2.66671 4.68415 3.10921 3.89649 3.89686C3.10884 4.68451 2.66634 5.7528 2.66634 6.86671V17.1334C2.66634 19.455 4.54467 21.3334 6.86634 21.3334H17.133C18.2469 21.3334 19.3152 20.8909 20.1029 20.1032C20.8905 19.3156 21.333 18.2473 21.333 17.1334V6.86671C21.333 4.54504 19.4547 2.66671 17.133 2.66671H6.86634ZM18.1247 4.41671C18.5114 4.41671 18.8824 4.57035 19.1559 4.84384C19.4294 5.11733 19.583 5.48827 19.583 5.87504C19.583 6.26182 19.4294 6.63275 19.1559 6.90624C18.8824 7.17973 18.5114 7.33337 18.1247 7.33337C17.7379 7.33337 17.367 7.17973 17.0935 6.90624C16.82 6.63275 16.6663 6.26182 16.6663 5.87504C16.6663 5.48827 16.82 5.11733 17.0935 4.84384C17.367 4.57035 17.7379 4.41671 18.1247 4.41671ZM11.9997 6.16671C13.5468 6.16671 15.0305 6.78129 16.1245 7.87525C17.2184 8.96921 17.833 10.4529 17.833 12C17.833 13.5471 17.2184 15.0309 16.1245 16.1248C15.0305 17.2188 13.5468 17.8334 11.9997 17.8334C10.4526 17.8334 8.96885 17.2188 7.87489 16.1248C6.78092 15.0309 6.16634 13.5471 6.16634 12C6.16634 10.4529 6.78092 8.96921 7.87489 7.87525C8.96885 6.78129 10.4526 6.16671 11.9997 6.16671ZM11.9997 8.50004C11.0714 8.50004 10.1812 8.86879 9.5248 9.52517C8.86842 10.1815 8.49967 11.0718 8.49967 12C8.49967 12.9283 8.86842 13.8185 9.5248 14.4749C10.1812 15.1313 11.0714 15.5 11.9997 15.5C12.9279 15.5 13.8182 15.1313 14.4745 14.4749C15.1309 13.8185 15.4997 12.9283 15.4997 12C15.4997 11.0718 15.1309 10.1815 14.4745 9.52517C13.8182 8.86879 12.9279 8.50004 11.9997 8.50004Z" fill="#919786"/>
</svg>
