<svg width="57" height="130" viewBox="0 0 57 130" fill="none" xmlns="http://www.w3.org/2000/svg">
<path d="M22.8913 101.659C23.6337 105.618 29.8001 121.869 32.7905 129.5H53.2073C55.2696 125.169 58.5899 115.084 55.3727 109.392C52.1555 103.7 54.4447 89.9034 55.9914 83.7164C36.1931 105.68 39.9053 119.601 35.5744 118.982C32.1097 118.487 31.656 109.702 31.8622 105.371C38.6679 100.112 33.7183 90.8314 30.0061 83.7164C27.0364 78.0244 30.0061 60.309 31.8622 52.1628H25.9846C21.035 63.6087 27.5315 80.9322 24.4381 78.1481C21.3446 75.364 -4.27898 54.9179 0.618187 60.5152C2.78339 62.99 21.9633 96.709 22.8913 101.659Z" fill="#1F8961"/>
<path d="M14.8481 0.192195C12.0904 1.79079 20.6371 35.9589 24.7472 55.5658L30.9342 56.1845C34.5305 51.9757 41.2471 40.6604 41.5994 31.5447C41.9517 22.429 44.5352 9.67942 45.7829 4.44406C44.0948 3.82814 39.97 2.96584 36.9755 4.44406C33.2324 6.29184 33.0122 21.074 31.4709 15.5307C29.9297 9.9874 17.9945 -1.63174 14.8481 0.192195Z" fill="#9089B7"/>
<path d="M25.3655 21.5373C22.8907 26.4869 24.3346 46.079 25.3657 55.5656L30.6246 56.1844C32.3776 51.6472 36.1311 40.5932 37.121 32.6739C38.1109 24.7545 33.2026 29.3741 30.6246 32.6739C29.9028 26.8993 27.8403 16.5877 25.3655 21.5373Z" fill="#795D7D"/>
</svg>
