<svg width="76" height="140" viewBox="0 0 76 140" fill="none" xmlns="http://www.w3.org/2000/svg">
<path d="M37.1178 57.0298C16.0034 58.5753 11.2547 38.8694 23.7088 31.9417C19.6723 27.3909 12.0739 24.772 13.0764 13.1679C14.0438 1.96987 22.6756 7.2847 24.9601 15.306C23.6393 7.38127 31.5351 3.96238 35.477 3.00539L42.193 12.5405L54.3737 6.13419L67.7001 23.7082L51.2031 34.4412C55.6756 38.6258 63.3631 55.1086 37.1178 57.0298Z" fill="#FFCECE"/>
<path d="M36.4917 42.5368L30.6896 24.9134L41.0521 22.6508L42.6699 31.0552L36.4917 42.5368Z" fill="#D33537"/>
<path d="M28.4578 103.787C33.4104 100.216 32.7289 59.8577 32.0278 56.901L40.0595 56.8144C41.7215 59.1994 34.4419 103.349 36.0232 111.254C39.246 100.49 45.794 87.4776 58.4501 82.0391C77.5032 73.8518 48.1785 115.221 32.4359 137.587L28.3736 136.881C21.3189 122.692 6.94915 92.1259 5.90778 83.3785C4.8664 74.6312 12.7311 87.5582 16.7937 95.1151C21.61 95.1636 26.5766 100.916 28.4578 103.787Z" fill="#1F8961"/>
</svg>
