<svg width="28" height="30" viewBox="0 0 28 30" fill="none" xmlns="http://www.w3.org/2000/svg">
<path d="M23.5203 17.1075L12.7821 17.1075L13.1111 16.7785L15.9195 13.9701C17.0538 14.5413 18.3037 14.8459 19.5736 14.8605C20.8519 14.8639 22.1062 14.5141 23.1982 13.8497C26.5191 11.8392 28.2985 7.18556 27.9583 1.40067C27.9423 1.12666 27.8263 0.868071 27.6322 0.67399C27.4381 0.479909 27.1795 0.363851 26.9055 0.347849C21.1206 0.00904477 16.4669 1.78707 14.4565 5.10793C13.1461 7.27096 13.1125 9.88341 14.3347 12.388L12.3201 14.4027L10.6106 12.6933C11.4507 10.8382 11.3905 8.91319 10.416 7.30596C8.89422 4.78732 5.40536 3.4447 1.08209 3.69811C0.80856 3.71441 0.550495 3.83041 0.356736 4.02417C0.162978 4.21793 0.0469724 4.47599 0.0306742 4.74953C-0.224129 9.07139 1.11989 12.5603 3.63993 14.0835C4.48296 14.5984 5.45214 14.8698 6.43998 14.8675C7.33615 14.8586 8.2201 14.6586 9.03282 14.2809L10.7352 15.9875L9.61523 17.1075L3.35993 17.1075C3.06288 17.1075 2.778 17.2255 2.56796 17.4356C2.35791 17.6456 2.23991 17.9305 2.23991 18.2275C2.23991 18.5246 2.35791 18.8095 2.56796 19.0195C2.778 19.2296 3.06288 19.3476 3.35993 19.3476L4.70255 19.3476L6.55198 27.6735C6.66039 28.1722 6.93674 28.6185 7.33481 28.9378C7.73287 29.2571 8.22851 29.4301 8.73882 29.4277L18.1428 29.4277C18.6531 29.4301 19.1487 29.2571 19.5468 28.9378C19.9448 28.6185 20.2212 28.1722 20.3296 27.6735L22.179 19.3476L23.5203 19.3476C23.8173 19.3476 24.1022 19.2296 24.3122 19.0195C24.5223 18.8095 24.6403 18.5246 24.6403 18.2275C24.6403 17.9305 24.5223 17.6456 24.3122 17.4356C24.1022 17.2255 23.8173 17.1075 23.5203 17.1075ZM16.3801 6.26855C17.8446 3.85211 21.3138 2.48848 25.7603 2.54868C25.8177 7.00216 24.4569 10.47 22.0404 11.9288C20.429 12.9089 18.4844 12.8445 16.5411 11.7636C15.4589 9.82741 15.4001 7.87997 16.3801 6.26855ZM8.41541 12.0828C7.12739 12.7731 5.85197 12.8053 4.79915 12.1668C3.18913 11.191 2.26091 8.89079 2.23991 5.90734C5.22336 5.92834 7.525 6.85656 8.49941 8.46658C9.13782 9.5194 9.10002 10.7948 8.41541 12.0828ZM18.1428 27.1877L8.73882 27.1877L6.99999 19.3476L19.8802 19.3476L18.1428 27.1877Z" fill="#8F8F8F"/>
</svg>
