<svg width="26" height="25" viewBox="0 0 26 25" fill="none" xmlns="http://www.w3.org/2000/svg">
<path fill-rule="evenodd" clip-rule="evenodd" d="M11.6687 0.86731C9.95769 0.867455 8.2715 1.27678 6.75084 2.06113C5.23017 2.84548 3.91912 3.98211 2.92708 5.3762C1.93503 6.77029 1.29076 8.3814 1.048 10.0751C0.805242 11.7688 0.971046 13.4961 1.53158 15.1127C2.09211 16.7293 3.03111 18.1884 4.27025 19.3683C5.50938 20.5482 7.01271 21.4147 8.65482 21.8954C10.2969 22.3762 12.0302 22.4573 13.71 22.1319C15.3898 21.8065 16.9675 21.0842 18.3113 20.0251L22.9215 24.6353C23.1596 24.8652 23.4785 24.9925 23.8095 24.9896C24.1405 24.9867 24.4571 24.854 24.6911 24.6199C24.9252 24.3859 25.058 24.0692 25.0608 23.7383C25.0637 23.4073 24.9365 23.0884 24.7065 22.8503L20.0963 18.2401C21.3436 16.6579 22.1201 14.7565 22.3372 12.7535C22.5542 10.7505 22.203 8.72688 21.3236 6.9142C20.4443 5.10152 19.0724 3.57303 17.3649 2.50364C15.6575 1.43425 13.6834 0.867174 11.6687 0.86731ZM3.46329 11.5975C3.46329 9.42128 4.32779 7.33419 5.8666 5.79537C7.40542 4.25656 9.49251 3.39206 11.6687 3.39206C13.8449 3.39206 15.932 4.25656 17.4708 5.79537C19.0097 7.33419 19.8742 9.42128 19.8742 11.5975C19.8742 13.7737 19.0097 15.8608 17.4708 17.3996C15.932 18.9384 13.8449 19.8029 11.6687 19.8029C9.49251 19.8029 7.40542 18.9384 5.8666 17.3996C4.32779 15.8608 3.46329 13.7737 3.46329 11.5975Z" fill="#8F8F8F"/>
</svg>
