<svg width="26" height="29" viewBox="0 0 26 29" fill="none" xmlns="http://www.w3.org/2000/svg">
<path fill-rule="evenodd" clip-rule="evenodd" d="M12.9995 19.2941C14.255 19.2941 15.4591 18.7953 16.3469 17.9075C17.2346 17.0198 17.7334 15.8157 17.7334 14.5602C17.7334 13.3047 17.2346 12.1006 16.3469 11.2128C15.4591 10.325 14.255 9.82626 12.9995 9.82626C11.744 9.82626 10.5399 10.325 9.65212 11.2128C8.76434 12.1006 8.26559 13.3047 8.26559 14.5602C8.26559 15.8157 8.76434 17.0198 9.65212 17.9075C10.5399 18.7953 11.744 19.2941 12.9995 19.2941ZM15.8398 14.5602C15.8398 15.3135 15.5406 16.0359 15.0079 16.5686C14.4753 17.1013 13.7528 17.4005 12.9995 17.4005C12.2462 17.4005 11.5237 17.1013 10.9911 16.5686C10.4584 16.0359 10.1592 15.3135 10.1592 14.5602C10.1592 13.8069 10.4584 13.0844 10.9911 12.5517C11.5237 12.0191 12.2462 11.7198 12.9995 11.7198C13.7528 11.7198 14.4753 12.0191 15.0079 12.5517C15.5406 13.0844 15.8398 13.8069 15.8398 14.5602Z" fill="#8F8F8F"/>
<path fill-rule="evenodd" clip-rule="evenodd" d="M13.0311 28.1307C13.5929 28.1307 14.0612 28.1307 14.445 28.1055C14.8373 28.0892 15.2241 28.0081 15.59 27.8656C16.0113 27.6913 16.3941 27.4357 16.7167 27.1134C17.0392 26.7911 17.295 26.4084 17.4696 25.9872C17.6527 25.5454 17.7019 25.0783 17.7221 24.5708C17.7241 24.3852 17.7733 24.2032 17.8649 24.0418C17.9565 23.8804 18.0877 23.7449 18.246 23.648C18.409 23.559 18.5919 23.5129 18.7776 23.514C18.9634 23.5151 19.1457 23.5634 19.3077 23.6544C19.7571 23.8917 20.1863 24.0823 20.6609 24.1454C21.1129 24.2049 21.5722 24.1747 22.0126 24.0567C22.4529 23.9386 22.8657 23.735 23.2273 23.4574C23.5331 23.2114 23.7963 22.9167 24.0062 22.5851C24.2208 22.2645 24.4556 21.8593 24.7359 21.3732L24.7674 21.3177C25.0489 20.8317 25.2825 20.4265 25.4516 20.0806C25.6284 19.7195 25.7672 19.3635 25.8177 18.9697C25.9382 18.057 25.6911 17.1339 25.131 16.4033C24.8394 16.0233 24.4594 15.7468 24.0302 15.4767C23.8702 15.3821 23.7369 15.2483 23.6428 15.088C23.5487 14.9277 23.497 14.7461 23.4924 14.5602C23.497 14.3744 23.5487 14.1928 23.6428 14.0324C23.7369 13.8721 23.8702 13.7383 24.0302 13.6437C24.4594 13.3736 24.8381 13.0971 25.131 12.7171C25.4086 12.3555 25.6122 11.9427 25.7302 11.5024C25.8483 11.062 25.8784 10.6027 25.819 10.1507C25.7672 9.75688 25.6296 9.40089 25.4529 9.03985C25.2825 8.69396 25.0489 8.28874 24.7674 7.80272L24.7359 7.74718C24.4556 7.26117 24.2208 6.85594 24.0062 6.5353C23.7828 6.20329 23.5429 5.90411 23.2273 5.66426C22.8658 5.38646 22.453 5.18262 22.0127 5.06435C21.5723 4.94609 21.113 4.91573 20.6609 4.97501C20.1863 5.03812 19.7571 5.22748 19.3077 5.46607C19.1459 5.55689 18.9638 5.60512 18.7783 5.60622C18.5928 5.60733 18.4101 5.56127 18.2473 5.47238C18.0881 5.37628 17.9561 5.24103 17.864 5.0795C17.7718 4.91797 17.7225 4.73554 17.7209 4.54958C17.7019 4.04211 17.6527 3.57503 17.4684 3.1332C17.2941 2.71188 17.0385 2.32903 16.7161 2.00651C16.3938 1.684 16.0112 1.42813 15.59 1.25353C15.2239 1.10204 14.8452 1.04271 14.445 1.0162C14.0612 0.989688 13.5929 0.98969 13.0311 0.98969L12.968 0.98969C12.4063 0.98969 11.9379 0.98969 11.5542 1.01494C11.1527 1.04271 10.7753 1.10204 10.4092 1.25479C9.98787 1.42911 9.60502 1.68472 9.2825 2.00702C8.95998 2.32932 8.70411 2.712 8.52951 3.1332C8.34646 3.57503 8.29723 4.04211 8.27703 4.54958C8.27523 4.73539 8.2262 4.91769 8.13455 5.07934C8.04291 5.24099 7.91166 5.37667 7.75315 5.47364C7.59005 5.56245 7.40705 5.60835 7.22134 5.60702C7.03563 5.6057 6.85331 5.55719 6.69149 5.46607C6.24209 5.22874 5.81288 5.03812 5.33823 4.97627C4.42554 4.85584 3.50239 5.10286 2.77182 5.663C2.45623 5.90537 2.21638 6.20329 1.99294 6.5353C1.77833 6.85594 1.54353 7.26116 1.26328 7.74718L1.23172 7.80272C0.950212 8.28873 0.716674 8.69396 0.547516 9.03985C0.370783 9.40089 0.231924 9.75814 0.181429 10.1507C0.0609983 11.0634 0.308016 11.9866 0.868158 12.7171C1.15977 13.0971 1.53974 13.3736 1.96895 13.6437C2.12897 13.7383 2.26229 13.8721 2.35636 14.0324C2.45044 14.1927 2.50218 14.3744 2.50672 14.5602C2.50672 14.9112 2.31484 15.2596 1.96895 15.4767C1.53974 15.7468 1.16103 16.0233 0.868157 16.4033C0.590582 16.7649 0.386959 17.1777 0.268912 17.6181C0.150866 18.0584 0.120709 18.5177 0.180163 18.9697C0.240244 19.3576 0.363936 19.7329 0.546252 20.0806C0.761777 20.5 0.990378 20.9126 1.23172 21.3177L1.26328 21.3732C1.49388 21.7847 1.73722 22.1888 1.99293 22.5851C2.20287 22.9163 2.46603 23.2106 2.77182 23.4562C3.13337 23.734 3.54611 23.9378 3.98646 24.0561C4.42681 24.1743 4.88614 24.2047 5.33822 24.1454C5.81288 24.0823 6.24209 23.8929 6.69149 23.6544C6.85326 23.5636 7.03541 23.5155 7.22087 23.5144C7.40634 23.5133 7.58905 23.5593 7.75188 23.648C7.91069 23.7446 8.04232 23.8799 8.13441 24.0414C8.22649 24.2028 8.27601 24.385 8.27829 24.5708C8.29723 25.0783 8.34646 25.5454 8.53077 25.9872C8.70509 26.4085 8.9607 26.7914 9.283 27.1139C9.6053 27.4364 9.98798 27.6923 10.4092 27.8669C10.7753 28.0184 11.154 28.0777 11.5542 28.1042C11.9379 28.1307 12.4063 28.1307 12.968 28.1307L13.0311 28.1307ZM14.8654 26.1172C14.7682 26.1576 14.6205 26.1943 14.3162 26.2157C14.0044 26.2372 13.6005 26.2372 12.9996 26.2372C12.3987 26.2372 11.9947 26.2372 11.6829 26.2157C11.3787 26.1943 11.231 26.1576 11.1338 26.1172C10.7462 25.9569 10.4395 25.6502 10.2792 25.2626C10.2287 25.1414 10.187 24.9508 10.1706 24.5001C10.1327 23.5003 9.61641 22.5372 8.69993 22.0082C7.78344 21.478 6.69149 21.5134 5.80657 21.9804C5.40766 22.1913 5.22209 22.2506 5.0908 22.267C4.67603 22.3218 4.25647 22.2097 3.92437 21.9552C3.84105 21.8908 3.73501 21.781 3.56459 21.5285C3.38912 21.2685 3.18714 20.9188 2.88669 20.3987C2.58625 19.8786 2.38553 19.5277 2.24793 19.2474C2.11286 18.9735 2.0712 18.827 2.05858 18.7223C2.00377 18.3075 2.11593 17.8879 2.37038 17.5558C2.45118 17.451 2.59509 17.3198 2.97632 17.0799C3.82464 16.5472 4.40028 15.6181 4.40028 14.5602C4.40028 13.5023 3.82464 12.5732 2.97632 12.0405C2.59509 11.8007 2.45118 11.6694 2.37038 11.5646C2.11538 11.2326 2.0043 10.8135 2.05858 10.3982C2.0712 10.2934 2.11412 10.1457 2.24793 9.87302C2.38553 9.59151 2.58625 9.24183 2.8867 8.72173C3.18714 8.20163 3.39038 7.85195 3.56459 7.59191C3.73501 7.33943 3.84105 7.22961 3.92437 7.16522C4.25647 6.91077 4.67603 6.79861 5.0908 6.85342C5.22209 6.86983 5.4064 6.92916 5.80657 7.13997C6.69023 7.60705 7.78344 7.6424 8.69993 7.11347C9.61641 6.58327 10.1327 5.62008 10.1706 4.62028C10.187 4.16961 10.2287 3.97899 10.2792 3.8578C10.3585 3.66618 10.4748 3.49207 10.6214 3.34542C10.7681 3.19878 10.9422 3.08248 11.1338 3.00317C11.231 2.96278 11.3787 2.92617 11.6829 2.90471C11.9947 2.88325 12.3987 2.88325 12.9996 2.88325C13.6005 2.88325 14.0044 2.88325 14.3162 2.90471C14.6205 2.92617 14.7682 2.96278 14.8654 3.00317C15.057 3.08248 15.2311 3.19878 15.3777 3.34542C15.5244 3.49207 15.6407 3.66618 15.72 3.8578C15.7705 3.97899 15.8121 4.16961 15.8286 4.62028C15.8664 5.62008 16.3827 6.58327 17.2992 7.1122C18.2157 7.6424 19.3077 7.60705 20.1926 7.13998C20.5915 6.92916 20.7771 6.86983 20.9084 6.85342C21.3231 6.79861 21.7427 6.91077 22.0748 7.16523C22.1581 7.22961 22.2641 7.33943 22.4346 7.59191C22.672 7.96151 22.8981 8.3383 23.1125 8.72173C23.4129 9.24183 23.6136 9.59277 23.7512 9.87302C23.8863 10.147 23.9279 10.2934 23.9406 10.3982C23.9954 10.8129 23.8832 11.2325 23.6288 11.5646C23.548 11.6694 23.4041 11.8007 23.0228 12.0405C22.1745 12.5732 21.5989 13.5023 21.5989 14.5602C21.5989 15.6181 22.1745 16.5472 23.0228 17.0799C23.4041 17.3198 23.548 17.4511 23.6288 17.5558C23.8832 17.8879 23.9954 18.3075 23.9406 18.7223C23.9279 18.827 23.885 18.9747 23.7512 19.2474C23.6136 19.5289 23.4129 19.8786 23.1125 20.3987C22.812 20.9188 22.6088 21.2685 22.4346 21.5285C22.2641 21.781 22.1581 21.8908 22.0748 21.9552C21.7427 22.2097 21.3231 22.3218 20.9083 22.267C20.7771 22.2506 20.5928 22.1913 20.1926 21.9804C19.3089 21.5134 18.2157 21.478 17.2992 22.0082C16.3827 22.5372 15.8664 23.5003 15.8286 24.5001C15.8121 24.9508 15.7705 25.1414 15.72 25.2626C15.5597 25.6502 15.2529 25.9569 14.8654 26.1172Z" fill="#8F8F8F"/>
</svg>
