<svg width="28" height="29" viewBox="0 0 28 29" fill="none" xmlns="http://www.w3.org/2000/svg">
<path d="M27.5873 6.87934L21.988 1.27998C21.8578 1.14976 21.7032 1.04647 21.5331 0.976004C21.3629 0.905533 21.1806 0.869263 20.9964 0.869263C20.6245 0.869263 20.2679 1.017 20.0049 1.27998C19.7419 1.54295 19.5942 1.89963 19.5942 2.27153C19.5942 2.64344 19.7419 3.00011 20.0049 3.26308L21.8142 5.07004L14.1885 12.6957L10.5151 9.01993C10.0776 8.58254 9.4843 8.33684 8.86566 8.33684C8.24701 8.33684 7.65369 8.58254 7.21618 9.01993L0.683593 15.5525C0.466414 15.7687 0.294194 16.0258 0.176868 16.3089C0.059542 16.592 -0.000568591 16.8955 4.05324e-06 17.202V26.5343C4.05324e-06 27.153 0.245809 27.7464 0.683343 28.184C1.12088 28.6215 1.7143 28.8673 2.33307 28.8673H11.6653C11.9718 28.8682 12.2754 28.8082 12.5586 28.6908C12.8417 28.5735 13.0988 28.4011 13.3148 28.1837L19.8474 21.6511C20.2848 21.2136 20.5305 20.6203 20.5305 20.0017C20.5305 19.383 20.2848 18.7897 19.8474 18.3522L16.1717 14.6753L23.7973 7.05315L25.6066 8.86361C25.8696 9.12659 26.2262 9.27433 26.5981 9.27433C26.97 9.27433 27.3267 9.12659 27.5897 8.86361C27.8527 8.60063 28.0004 8.24396 28.0004 7.87206C28.0004 7.50015 27.8527 7.14348 27.5897 6.8805L27.5873 6.87934ZM17.5377 20.0017L11.4717 26.0676H2.79968V17.3956L8.86566 11.3297L12.2124 14.6753L7.87527 19.0113C7.61229 19.2743 7.46455 19.6309 7.46455 20.0028C7.46455 20.3747 7.61229 20.7314 7.87527 20.9944C8.13825 21.2574 8.49492 21.4051 8.86682 21.4051C9.23873 21.4051 9.5954 21.2574 9.85838 20.9944L14.1944 16.6572L17.5377 20.0017Z" fill="#8F8F8F"/>
</svg>
