<svg width="18" height="18" viewBox="0 0 18 18" fill="none" xmlns="http://www.w3.org/2000/svg">
<path d="M17.7359 3.86389L14.1361 0.264049C14.0524 0.180335 13.953 0.11393 13.8436 0.0686242C13.7343 0.0233185 13.617 0 13.4986 0C13.2595 0 13.0302 0.0949813 12.8612 0.264049C12.6921 0.433117 12.5971 0.662422 12.5971 0.90152C12.5971 1.14062 12.6921 1.36992 12.8612 1.53899L14.0244 2.70069L9.12184 7.60322L6.7602 5.24007C6.47892 4.95888 6.09747 4.80091 5.69974 4.80091C5.30202 4.80091 4.92057 4.95888 4.63929 5.24007L0.439483 9.43988C0.299858 9.57888 0.189138 9.74416 0.113709 9.92616C0.0382796 10.1082 -0.000365548 10.3033 2.60583e-06 10.5003V16.5001C2.60583e-06 16.8979 0.158031 17.2794 0.439322 17.5607C0.720614 17.842 1.10213 18 1.49993 18H7.49966C7.69671 18.0005 7.8919 17.962 8.07393 17.8865C8.25596 17.8111 8.42121 17.7003 8.56011 17.5605L12.7599 13.3607C13.0411 13.0794 13.1991 12.698 13.1991 12.3003C13.1991 11.9025 13.0411 11.5211 12.7599 11.2398L10.3968 8.87591L15.2993 3.97563L16.4625 5.13958C16.6316 5.30865 16.8609 5.40363 17.1 5.40363C17.3391 5.40363 17.5684 5.30865 17.7374 5.13958C17.9065 4.97051 18.0015 4.7412 18.0015 4.50211C18.0015 4.26301 17.9065 4.0337 17.7374 3.86464L17.7359 3.86389ZM11.275 12.3003L7.37517 16.2001H1.79992V10.6248L5.69974 6.72501L7.8514 8.87591L5.06302 11.6635C4.89396 11.8326 4.79897 12.0619 4.79897 12.301C4.79897 12.5401 4.89396 12.7694 5.06302 12.9385C5.23209 13.1075 5.4614 13.2025 5.70049 13.2025C5.93959 13.2025 6.1689 13.1075 6.33797 12.9385L9.12559 10.1501L11.275 12.3003Z" fill="white"/>
</svg>
